<?xml version="1.0" encoding="iso-8859-1"?>
<svg xmlns="http://www.w3.org/2000/svg" xmlns:xlink="http://www.w3.org/1999/xlink" version="1.1" viewBox="0 0 282.77 282.77" enable-background="new 0 0 282.77 282.77" width="512px" height="512px">
  <g>
    <path d="m274.504,63.515l-55.684-55.684c-8.701-10.441-26.102-10.441-36.543-2.66454e-15l-174.011,174.012c-3.48,5.22-6.96,12.181-6.96,19.141 0,6.96 1.74,13.921 6.96,19.141l55.684,55.685c5.22,3.48 12.181,6.96 19.141,6.96 6.96,0 12.181-3.48 17.401-6.96l174.012-174.012c3.48-5.22 6.96-12.181 6.96-19.141 0.001-6.961-1.739-13.922-6.96-19.142zm-12.18,26.102l-174.012,174.012c-3.48,3.48-8.701,3.48-12.181,0l-55.684-55.684c0-1.74-1.74-3.48-1.74-6.96 0-3.48 0-5.22 1.74-6.96l20.011-20.011 21.752,21.752c1.74,1.74 5.22,1.74 6.96,1.74s5.22-1.74 5.22-1.74c3.48-3.48 3.48-8.701 0-12.181l-21.752-21.752 27.842-27.842 21.752,21.752c1.74,1.74 5.22,1.74 6.96,1.74s5.22-1.74 5.22-1.74c3.48-3.48 3.48-8.701 0-12.181l-21.752-21.752 27.842-27.842 21.752,21.752c1.74,1.74 5.22,1.74 6.96,1.74 1.74,0 3.48-1.74 5.22-1.74 3.48-3.48 3.48-8.701 0-12.181l-21.751-21.752 27.842-27.842 21.752,21.752c1.74,1.74 5.22,1.74 6.96,1.74 1.74,0 3.48,0 5.22-1.74 3.48-3.48 3.48-8.701 0-12.181l-21.752-21.752 21.752-21.752c1.74,0 5.22-1.74 6.96-1.74 3.48,0 5.22,1.74 5.22,1.74l55.684,55.684c0,1.74 1.74,3.48 1.74,6.96 0.001,3.479 0.003,5.22-1.737,6.961z" fill="#bebebe"/>
  </g>
</svg>
